<svg id="ImportedIcons" xmlns="http://www.w3.org/2000/svg" width="96" height="96" viewBox="0 0 96 96">
  <defs>
    <style>
      .cls-1 {
        fill: #b3b3b3;
      }
    </style>
  </defs>
  <path class="cls-1" d="M56,60H42a1,1,0,0,1-1-1V53a1,1,0,0,1,1-1H63a1,1,0,0,1,0,2H43v4H56a1,1,0,0,1,0,2Z"/>
  <path class="cls-1" d="M67,36H42a1,1,0,0,1-1-1V29a1,1,0,0,1,1-1H67a1,1,0,0,1,1,1v6A1,1,0,0,1,67,36ZM43,34H66V30H43Z"/>
  <path class="cls-1" d="M37,45H27a1,1,0,0,1,0-2H37a1,1,0,0,1,0,2Z"/>
  <path class="cls-1" d="M74.5,86H60.667a1.5,1.5,0,0,1,0-3H73V66.5a1.5,1.5,0,0,1,3,0v18A1.5,1.5,0,0,1,74.5,86Z"/>
  <path class="cls-1" d="M67,48H42a1,1,0,0,1-1-1V41a1,1,0,0,1,1-1H67a1,1,0,0,1,1,1v6A1,1,0,0,1,67,48ZM43,46H66V42H43Z"/>
  <path class="cls-1" d="M37,33H27a1,1,0,0,1,0-2H37a1,1,0,0,1,0,2Z"/>
  <path class="cls-1" d="M37,57H27a1,1,0,0,1,0-2H37a1,1,0,0,1,0,2Z"/>
  <path class="cls-1" d="M87.061,44.756l-4.243-4.243a1.5,1.5,0,0,0-2.121,0L45.341,75.868a1.4999,1.4999,0,0,0-.332.5L42.358,83H22.5a.5.5,0,0,1-.5-.5v-70a.5.5,0,0,1,.5-.5h18a.5.5,0,0,1,.5.5v7A1.5,1.5,0,0,0,42.5,21H73V39a1.5,1.5,0,0,0,3,0V19.5A1.5,1.5,0,0,0,74.5,18H44V12.5A3.5,3.5,0,0,0,40.5,9h-18A3.5,3.5,0,0,0,19,12.5v70A3.5,3.5,0,0,0,22.5,86H43.1a1.5,1.5,0,0,0,1.266-.7L51.2,82.564a1.5,1.5,0,0,0,.5-.332L87.061,46.877A1.5,1.5,0,0,0,87.061,44.756ZM49.8,79.893l-3.536,1.414,1.414-3.536L81.757,43.695l2.122,2.122Z"/>
</svg>
