<svg id="ImportedIcons" xmlns="http://www.w3.org/2000/svg" width="96" height="96" viewBox="0 0 96 96">
  <defs>
    <style>
      .cls-1 {
        fill: #b3b3b3;
      }
    </style>
  </defs>
  <path class="cls-1" d="M59.8,71.321c-11.589,0-31.2-1.612-31.2-7.653a1.50007,1.50007,0,1,1,3-.029c.609,1.643,10.776,4.682,28.2,4.682,17.48,0,27.656-3.058,28.209-4.7L88,57.648a1.5,1.5,0,1,1,3,0h0v6.02C91,69.709,71.386,71.321,59.8,71.321Z"/>
  <path class="cls-1" d="M91,31.277c0-6.008-19.486-7.611-31-7.611s-31,1.6-31,7.611c0,.061.014.118.018.177a1.48366,1.48366,0,0,0-.018.184V36.7a1.5,1.5,0,0,0,3,0V34.88c5.909,3.08,19.252,4.008,28,4.008s22.094-.928,28-4.009V41.13c-.554,1.639-10.73,4.7-28.209,4.7a105.13135,105.13135,0,0,1-21.515-1.947,1.5,1.5,0,0,0-.658,2.927A106.59059,106.59059,0,0,0,59.8,48.828c11.589,0,31.2-1.612,31.2-7.653V31.639a1.4782,1.4782,0,0,0-.018-.18C90.986,31.4,91,31.339,91,31.277ZM60,35.9c-17.356,0-27.465-3.039-28.018-4.578.552-1.629,10.662-4.668,28.018-4.668,17.2,0,27.282,2.984,28,4.623C87.282,32.916,77.2,35.9,60,35.9Z"/>
  <path class="cls-1" d="M59.8,59.786c-9.625,0-18.468-.927-24.263-2.542a1.50014,1.50014,0,1,1,.806-2.89h0C41.8,55.877,50.57,56.786,59.8,56.786c17.479,0,27.655-3.058,28.209-4.7L88,46.811a1.5,1.5,0,0,1,3,0v5.322C91,58.174,71.386,59.786,59.8,59.786Z"/>
  <path class="cls-1" d="M31.079,47.362l-8.652-8.2a1.5,1.5,0,1,0-2.07643,2.16528L20.364,41.34,27.458,48H6.5a1.5,1.5,0,0,0,0,3H27.394l-7.028,6.661a1.5,1.5,0,0,0,2.063,2.178l8.65-8.2a2.946,2.946,0,0,0,.11326-4.16473q-.05508-.05817-.11326-.11327Z"/>
</svg>
