<svg id="ImportedIcons" xmlns="http://www.w3.org/2000/svg" width="96" height="96" viewBox="0 0 96 96">
  <defs>
    <style>
      .cls-1 {
        fill: #b3b3b3;
      }
    </style>
  </defs>
  <path class="cls-1" d="M67.253,20.268l-9.192-9.192a1,1,0,0,0-.815-.287l-2.456.266C54.283,7.014,52.992,7,52.5,7c-.7,0-1.672.394-2.354,2.269a1.00028,1.00028,0,0,0,1.88.684,3.83826,3.83826,0,0,1,.336-.718,9.914,9.914,0,0,1,.427,2.037l-1.888.2a1,1,0,0,0-.886.881l-.726,6.383a1,1,0,0,0,.287.82l9.192,9.192a1,1,0,0,0,1.414,0l7.071-7.071A1,1,0,0,0,67.253,20.268Zm-7.778,6.364-8.144-8.145.581-5.109,1.044-.113C52.982,13.8,53,14.375,53,15a1,1,0,0,0,2,0c0-.72-.02-1.355-.048-1.951l2.033-.22,8.147,8.146Z"/>
  <path class="cls-1" d="M51,47a1,1,0,0,1-1-1V25.847a1,1,0,0,1,2,0V46A1,1,0,0,1,51,47Z"/>
  <path class="cls-1" d="M72.5,45A1.5,1.5,0,0,1,71,43.5V15H63.551a1.5,1.5,0,0,1,0-3H72.5A1.5,1.5,0,0,1,74,13.5v30A1.5,1.5,0,0,1,72.5,45Z"/>
  <path class="cls-1" d="M68.66,36H33.655a1,1,0,0,1,0-2H68.66a1,1,0,0,1,0,2Z"/>
  <path class="cls-1" d="M7.5,87A1.5,1.5,0,0,1,6,85.5v-26a1.5,1.5,0,0,1,1.013-1.418l21.7-7.457A11.467,11.467,0,0,1,32.449,50H59.763a7.184,7.184,0,0,1,7.2,6.317,7,7,0,0,1-6.2836,7.6496Q60.34072,63.99981,60,64H54.744l-5.77,1.923a1.5,1.5,0,0,1-1.143-.081l-4.013-2A1.5,1.5,0,0,1,44.487,61H60a4,4,0,0,0,3.981-4.4A4.162,4.162,0,0,0,59.763,53H32.449a8.48706,8.48706,0,0,0-2.763.461L9,60.571v21.9L22.805,71.936a3.49,3.49,0,0,1,3.048-.631l20.89,6.8a9.047,9.047,0,0,0,7.731-1.895c7.02-5.318,18.835-13.8,23.88-17.418,1.469-1.054,2.407-1.727,2.552-1.837a4,4,0,0,0,.47424-5.63694q-.11567-.13692-.24324-.26307a4.16,4.16,0,0,0-5.545-.086l-5.5,4.17a1.5,1.5,0,0,1-1.812-2.391h0l5.447-4.13a7.165,7.165,0,0,1,9.527.313,7,7,0,0,1,.03724,9.89942q-.24119.243-.50525.46158c-.1.083-.376.282-2.686,1.939C75.068,64.846,63.275,73.31,56.286,78.6A12,12,0,0,1,45.9,80.985l-20.889-6.8a.5.5,0,0,0-.356.118L8.41,86.692A1.5,1.5,0,0,1,7.5,87Z"/>
  <path class="cls-1" d="M29.5,48.637a1.5,1.5,0,0,1-1.5-1.5V13.5A1.5,1.5,0,0,1,29.5,12H47.642a1.5,1.5,0,0,1,0,3H31V47.137A1.5,1.5,0,0,1,29.5,48.637Z"/>
</svg>
